<svg width="2556" height="494" viewBox="0 0 2556 494" fill="none" xmlns="http://www.w3.org/2000/svg">
<path d="M483.711 10.6339C445.734 36.4586 377.678 67.7521 312.357 88.7157C271.949 101.78 266.176 105.73 212.096 152.822C189.613 172.57 167.131 191.103 161.966 194.141C150.724 200.825 134.926 201.433 110.012 195.357C99.9863 192.926 84.4914 190.799 75.9845 190.799C64.4393 190.799 59.882 189.584 59.882 186.85C59.882 179.558 83.8838 144.922 99.3786 130.035C145.255 85.3737 202.678 67.4482 263.442 79.2972C285.013 83.5507 286.532 83.5507 299.596 77.1705C306.888 73.8285 312.964 69.2712 312.964 67.7521C312.66 65.9291 303.242 61.3718 292.001 57.4221C264.657 47.6999 206.02 46.4846 175.334 54.9916C131.28 66.8406 85.7067 97.2226 58.0591 133.985C42.2604 154.948 29.8038 179.254 28.8923 191.711C28.5885 196.268 25.8541 200.522 23.4236 201.433C20.6892 202.344 14.6128 206.902 10.0555 211.763C-6.35084 228.777 -2.09735 255.513 18.5624 266.754C26.4618 270.704 27.3732 270.704 31.3229 265.539C33.4496 262.501 35.8802 258.551 36.4878 256.728C38.6146 250.044 67.4775 269.185 114.57 308.985C184.145 367.319 199.032 378.256 217.869 385.244C226.983 388.586 237.009 392.84 240.047 394.663C248.554 399.524 249.466 396.182 243.997 380.079C239.744 367.623 237.009 364.281 224.856 357.9C216.653 353.647 183.233 328.734 150.42 302.605C117.608 276.173 85.7067 251.563 79.9341 247.31C74.1615 243.36 69.9081 239.411 70.8195 238.499C74.7692 234.549 57.7553 229.688 44.0833 230.904C29.5 232.423 29.5 232.423 34.6649 226.65C48.9445 210.851 69.3004 208.117 98.1634 218.447C112.139 223.308 121.861 224.523 141.913 223.612C171.992 222.397 178.068 219.055 219.388 181.381C232.756 169.532 256.15 150.391 271.037 138.846C297.166 119.402 299.9 117.882 335.447 109.072C384.058 96.9188 428.416 82.6393 447.253 73.2208C480.673 56.2069 502.244 30.0783 499.814 8.81091L498.902 0.00012207L483.711 10.6339Z" fill="#359FA6"/>
<path d="M483.407 73.8277C465.482 86.2843 423.555 103.906 374.336 119.401C309.014 140.061 302.938 142.187 302.938 145.529C302.938 153.429 375.551 152.213 411.706 143.706C448.164 134.896 473.685 116.363 484.926 90.234C492.826 72.3086 492.218 67.4475 483.407 73.8277Z" fill="#359FA6"/>
<path d="M457.279 146.745C453.633 150.391 417.175 161.632 368.563 174.393C340.308 181.684 316.61 187.761 316.002 187.761C315.699 187.761 315.091 189.28 315.091 191.103C315.091 193.23 330.282 194.141 364.614 193.23C418.086 192.318 422.947 191.103 444.215 171.962C455.152 162.544 466.393 145.226 461.532 145.226C460.013 145.226 458.19 145.834 457.279 146.745Z" fill="#359FA6"/>
<path d="M456.975 181.077L445.733 192.622L450.291 213.585C455.759 240.018 456.063 255.209 450.595 288.021C440.265 351.216 405.325 402.562 350.334 434.463C313.875 455.73 292 462.11 247.643 463.629C214.222 464.845 206.019 463.933 186.879 458.161C117.304 437.501 56.2358 373.395 40.741 304.428L36.7913 286.502L22.2079 285.591C6.10545 284.375 6.71309 280.73 16.4353 319.619C42.2601 424.437 149.205 502.518 254.023 493.1C289.57 490.062 313.875 483.378 346.992 467.275C398.337 442.362 434.492 406.511 459.405 355.469C481.888 309.289 488.268 250.348 476.419 197.483C473.077 183.507 470.039 171.658 469.431 170.747C468.824 170.139 463.051 174.696 456.975 181.077Z" fill="#359FA6"/>
<path d="M395.603 218.142C387.4 219.662 348.207 222.092 309.014 223.915C269.821 225.738 236.705 228.472 235.186 229.991C228.198 236.979 236.705 241.537 265.568 247.309C284.709 250.955 308.103 253.082 331.801 253.082C364.31 253.082 369.778 252.17 381.931 245.79C396.818 237.891 412.313 225.738 416.263 219.358C418.997 214.497 418.39 214.497 395.603 218.142Z" fill="#359FA6"/>
<path d="M199.335 271.008C208.754 280.73 252.504 302.301 272.252 306.555C281.063 308.377 294.127 308.985 301.115 308.074C316.914 305.643 342.131 293.49 350.942 284.072L357.626 276.78L329.067 276.476C301.115 275.869 264.961 272.527 223.945 266.754C213.007 265.235 201.462 263.716 198.424 263.716C192.955 263.716 192.955 264.02 199.335 271.008Z" fill="#359FA6"/>
<path d="M220.907 307.466C220.907 307.77 226.072 321.138 232.452 337.24C250.985 383.117 265.872 405.296 288.962 422.006C303.546 432.944 311.749 432.944 327.244 422.918L339.093 415.018L316.002 394.966C303.242 384.029 294.431 374.307 296.558 373.699C298.685 373.091 313.876 380.079 330.89 389.498C363.702 408.031 365.525 408.334 374.336 391.017L378.589 382.814L305.065 346.355C235.794 312.023 220.907 305.339 220.907 307.466Z" fill="#359FA6"/>
<path d="M662.019 149.898C569.897 174.747 541.411 305.657 614.139 366.87C640.2 388.689 691.716 399.598 729.292 391.719C745.05 388.083 768.08 386.87 780.808 388.083L803.232 391.113V323.839V256.566H751.717H700.201V280.809V305.051H725.05C746.868 305.051 749.292 306.264 747.474 318.385C746.262 328.688 739.595 333.537 723.838 337.779C694.746 345.052 672.322 338.385 651.109 317.173C636.564 303.233 633.534 294.748 633.534 271.718C633.534 247.475 636.564 240.202 654.14 222.626C671.11 205.656 678.989 202.02 701.413 202.02C716.565 202.02 735.353 206.869 746.868 213.535L765.656 225.657L774.747 212.323C800.202 172.929 800.202 172.323 771.717 160.201C735.353 144.444 695.958 140.807 662.019 149.898Z" fill="#051E2D"/>
<path d="M920.203 162.02C897.172 172.929 885.657 183.232 874.142 203.232C853.536 239.596 849.899 258.991 858.384 298.385C863.839 325.052 870.505 337.779 890.506 357.173C970.506 437.78 1112.33 380.81 1112.33 268.688C1112.33 173.535 1013.54 118.989 920.203 162.02ZM1015.36 214.142C1076.57 245.657 1051.72 335.355 982.022 335.355C921.415 335.355 894.142 269.9 935.355 223.839C957.173 200.202 981.416 197.172 1015.36 214.142Z" fill="#051E2D"/>
<path d="M1124.45 149.9C1124.45 151.112 1137.78 182.021 1154.15 218.385C1170.51 254.143 1193.54 307.477 1206.27 336.568L1228.69 389.902H1257.78C1275.36 389.902 1288.09 386.872 1289.9 382.023C1318.39 315.356 1379 161.415 1379 155.354C1379 149.9 1369.91 147.476 1349.3 147.476C1315.36 147.476 1318.39 143.233 1279 255.355C1268.09 286.871 1257.18 309.295 1255.36 305.659C1252.93 302.023 1237.78 265.659 1221.42 225.052L1192.33 150.506L1158.39 148.688C1139.6 147.476 1124.45 148.082 1124.45 149.9Z" fill="#051E2D"/>
<path d="M1419.6 151.718C1417.18 153.536 1415.36 208.082 1415.36 272.931V389.902H1500.21H1585.06V362.629V335.356H1527.48H1469.91V314.144V292.932H1515.36H1560.82V268.689V244.446H1515.36H1469.91V223.234V202.022H1527.48H1585.06V174.749V147.475H1504.45C1459.6 147.475 1421.42 149.294 1419.6 151.718Z" fill="#359FA6"/>
<path d="M1703.24 166.87C1699 177.779 1683.85 214.143 1669.91 247.477C1643.85 309.901 1615.36 383.236 1615.36 388.084C1615.36 389.296 1629.3 389.902 1646.88 388.69C1677.18 386.872 1679 385.66 1684.45 366.872L1689.91 347.478H1737.18H1785.06L1793.55 368.69C1802.03 388.69 1803.85 389.902 1832.94 389.902H1863.85L1852.33 360.811C1846.27 345.053 1823.85 290.507 1803.24 239.598L1765.06 147.475H1738.39C1714.15 147.475 1711.12 149.294 1703.24 166.87ZM1751.12 251.719C1756.58 269.295 1763.24 287.477 1765.06 291.113C1766.88 297.174 1759.61 298.992 1737.79 298.992H1707.48L1720.21 259.598C1727.48 237.779 1734.76 220.204 1736.58 220.204C1739 220.204 1745.06 234.749 1751.12 251.719Z" fill="#359FA6"/>
<path d="M1945.67 155.959C1919 167.474 1883.24 209.899 1878.4 235.354C1866.88 296.567 1891.73 355.355 1939 380.204C1962.64 392.325 1970.52 392.931 2065.67 389.901L2100.82 388.689L2099 324.446L2097.19 259.596L2044.46 257.778L1991.12 255.96V280.809V305.051H2018.4C2043.25 305.051 2045.67 306.264 2045.67 319.597C2045.67 348.688 1984.46 347.476 1953.55 318.385C1924.46 291.112 1932.94 228.687 1967.49 210.505C1991.12 198.384 2020.82 200.202 2043.85 213.535L2062.64 225.657L2071.73 212.323C2097.19 172.929 2096.58 172.323 2068.7 159.595C2037.79 145.656 1973.55 143.838 1945.67 155.959Z" fill="#359FA6"/>
<path d="M2154.76 268.689V389.902H2242.64H2330.52V362.629V335.356H2272.95H2215.37V278.386C2215.37 247.477 2213.55 205.052 2211.73 184.446L2207.49 147.475H2181.43H2154.76V268.689Z" fill="#359FA6"/>
<path d="M2379.01 268.689V389.902H2466.89H2554.77V362.629V335.962L2495.98 334.144L2436.58 332.326L2434.77 312.326L2432.95 292.932H2481.43H2530.52V268.689V244.446H2481.43H2432.95L2434.77 224.446L2436.58 205.052L2495.98 203.234L2555.37 201.415L2553.55 175.961L2551.74 150.506L2465.67 148.688L2379.01 146.869V268.689Z" fill="#359FA6"/>
</svg>
