<svg width="320" height="62" viewBox="0 0 320 62" fill="none" xmlns="http://www.w3.org/2000/svg">
<path d="M60.5734 1.33162C55.8176 4.56555 47.2952 8.48432 39.1153 11.1095C34.0551 12.7455 33.3322 13.2401 26.56 19.1373C23.7446 21.6103 20.9292 23.9311 20.2824 24.3116C18.8746 25.1486 16.8962 25.2247 13.7764 24.4638C12.5209 24.1594 10.5806 23.8931 9.51526 23.8931C8.0695 23.8931 7.4988 23.7409 7.4988 23.3985C7.4988 22.4854 10.5045 18.1481 12.4448 16.2838C18.1898 10.691 25.3806 8.44628 32.9898 9.93008C35.6911 10.4627 35.8814 10.4627 37.5173 9.66376C38.4305 9.24525 39.1914 8.67456 39.1914 8.48432C39.1533 8.25605 37.9739 7.68535 36.5662 7.19075C33.142 5.97326 25.7991 5.82108 21.9564 6.88638C16.4397 8.37018 10.7327 12.1748 7.27053 16.7784C5.29212 19.4036 3.73222 22.4473 3.61808 24.0072C3.58003 24.5779 3.23762 25.1106 2.93325 25.2247C2.59083 25.3388 1.8299 25.9095 1.25921 26.5183C-0.795292 28.6489 -0.262644 31.9969 2.32451 33.4047C3.31371 33.8993 3.42785 33.8993 3.92245 33.2525C4.18877 32.872 4.49315 32.3774 4.56924 32.1491C4.83556 31.3121 8.44996 33.709 14.3471 38.6931C23.0597 45.998 24.924 47.3677 27.2829 48.2427C28.4243 48.6612 29.6798 49.1939 30.0603 49.4222C31.1256 50.0309 31.2397 49.6124 30.5549 47.5959C30.0222 46.036 29.6798 45.6175 28.158 44.8186C27.1307 44.2859 22.9456 41.1661 18.8366 37.8941C14.7276 34.5841 10.7327 31.5023 10.0099 30.9697C9.28698 30.4751 8.75433 29.9805 8.86847 29.8664C9.36307 29.3717 7.23248 28.763 5.5204 28.9152C3.69417 29.1054 3.69417 29.1054 4.34096 28.3825C6.12914 26.4041 8.67824 26.0617 12.2926 27.3553C14.0428 27.964 15.2603 28.1162 17.7713 28.0021C21.5379 27.8499 22.2988 27.4314 27.4731 22.7136C29.1472 21.2298 32.0767 18.8329 33.941 17.3872C37.213 14.9522 37.5554 14.762 42.0068 13.6586C48.0942 12.1368 53.649 10.3486 56.0078 9.16916C60.1929 7.03856 62.8942 3.76658 62.5899 1.10334L62.4757 -5.30194e-06L60.5734 1.33162Z" fill="#359FA6"/>
<path d="M60.5353 9.24515C58.2906 10.8051 53.0402 13.0117 46.8767 14.9521C38.6967 17.5392 37.9358 17.8056 37.9358 18.2241C37.9358 19.2133 47.0289 19.0611 51.5564 17.9958C56.1219 16.8925 59.3178 14.5716 60.7255 11.2997C61.7147 9.05492 61.6386 8.44618 60.5353 9.24515Z" fill="#359FA6"/>
<path d="M57.2633 18.3763C56.8068 18.8329 52.2412 20.2406 46.1538 21.8385C42.6155 22.7516 39.6479 23.5125 39.5718 23.5125C39.5337 23.5125 39.4576 23.7028 39.4576 23.9311C39.4576 24.1974 41.36 24.3115 45.6592 24.1974C52.3553 24.0832 52.9641 23.9311 55.6273 21.5341C56.997 20.3547 58.4047 18.1861 57.796 18.1861C57.6057 18.1861 57.3775 18.2622 57.2633 18.3763Z" fill="#359FA6"/>
<path d="M57.2253 22.6755L55.8176 24.1212L56.3882 26.7464C57.0731 30.0564 57.1111 31.9588 56.4263 36.0678C55.1327 43.9814 50.7574 50.4112 43.871 54.4061C39.3055 57.0693 36.5661 57.8683 31.0114 58.0585C26.8263 58.2107 25.799 58.0966 23.4021 57.3737C14.6895 54.7865 7.04218 46.7588 5.10182 38.1223L4.60722 35.8775L2.781 35.7634C0.764541 35.6112 0.840633 35.1547 2.05812 40.0246C5.29205 53.1506 18.6844 62.9285 31.8103 61.749C36.2617 61.3686 39.3055 60.5315 43.4525 58.5151C49.8823 55.3953 54.4098 50.9058 57.5296 44.514C60.3451 38.731 61.144 31.35 59.6602 24.73C59.2417 22.9798 58.8613 21.496 58.7852 21.3819C58.7091 21.3058 57.9862 21.8765 57.2253 22.6755Z" fill="#359FA6"/>
<path d="M49.5399 27.3173C48.5127 27.5075 43.6047 27.8119 38.6967 28.0402C33.7887 28.2685 29.6417 28.6109 29.4515 28.8011C28.5764 29.6762 29.6417 30.2469 33.2561 30.9697C35.653 31.4263 38.5826 31.6926 41.5502 31.6926C45.6211 31.6926 46.306 31.5785 47.8278 30.7795C49.6921 29.7903 51.6325 28.2685 52.1271 27.4695C52.4695 26.8607 52.3934 26.8607 49.5399 27.3173Z" fill="#359FA6"/>
<path d="M24.9621 33.9373C26.1415 35.1547 31.6202 37.856 34.0932 38.3887C35.1966 38.617 36.8325 38.693 37.7076 38.5789C39.686 38.2745 42.8439 36.7527 43.9472 35.5732L44.7842 34.6601L41.2079 34.6221C37.7076 34.546 33.1801 34.1275 28.0439 33.4046C26.6742 33.2144 25.2284 33.0241 24.848 33.0241C24.1631 33.0241 24.1631 33.0622 24.9621 33.9373Z" fill="#359FA6"/>
<path d="M27.6633 38.5027C27.6633 38.5408 28.3101 40.2148 29.1091 42.2313C31.4299 47.9763 33.2942 50.7537 36.1857 52.8462C38.0119 54.2159 39.0392 54.2159 40.9795 52.9603L42.4633 51.9711L39.5718 49.4601C37.9739 48.0904 36.8705 46.8729 37.1369 46.7968C37.4032 46.7207 39.3055 47.5958 41.4361 48.7752C45.5451 51.0961 45.7734 51.1341 46.8767 48.9655L47.4094 47.9382L38.2022 43.3727C29.5276 39.0734 27.6633 38.2364 27.6633 38.5027Z" fill="#359FA6"/>
<path d="M82.9022 18.7711C71.3661 21.8828 67.799 38.2763 76.9065 45.9417C80.17 48.674 86.6211 50.0401 91.3267 49.0535C93.2999 48.5981 96.184 48.4463 97.7778 48.5981L100.586 48.9776V40.5532V32.1288H94.1348H87.6837V35.1646V38.2004H90.7954C93.5276 38.2004 93.8312 38.3522 93.6035 39.8701C93.4517 41.1603 92.6169 41.7675 90.6436 42.2988C87.0006 43.2095 84.1925 42.3747 81.5361 39.7183C79.7146 37.9727 79.3352 36.9102 79.3352 34.0261C79.3352 30.9903 79.7146 30.0796 81.9156 27.8786C84.0407 25.7535 85.0273 25.2982 87.8355 25.2982C89.7329 25.2982 92.0856 25.9053 93.5276 26.7402L95.8804 28.2581L97.0188 26.5884C100.206 21.6552 100.206 21.5793 96.6393 20.0614C92.0856 18.0881 87.1524 17.6327 82.9022 18.7711Z" fill="#051E2D"/>
<path d="M115.234 20.2891C112.35 21.6552 110.908 22.9454 109.466 25.45C106.885 30.0037 106.43 32.4324 107.492 37.3656C108.175 40.705 109.01 42.2988 111.515 44.7275C121.533 54.8216 139.293 47.6874 139.293 33.6467C139.293 21.7311 126.922 14.9005 115.234 20.2891ZM127.149 26.8161C134.815 30.7627 131.703 41.9952 122.975 41.9952C115.385 41.9952 111.97 33.7985 117.131 28.0304C119.863 25.0705 122.899 24.691 127.149 26.8161Z" fill="#051E2D"/>
<path d="M140.811 18.7715C140.811 18.9233 142.48 22.794 144.529 27.3477C146.579 31.8256 149.463 38.5044 151.056 42.1474L153.865 48.8262H157.508C159.709 48.8262 161.302 48.4467 161.53 47.8395C165.097 39.491 172.687 20.2135 172.687 19.4546C172.687 18.7715 171.548 18.4679 168.968 18.4679C164.718 18.4679 165.097 17.9367 160.164 31.9774C158.798 35.9239 157.432 38.7321 157.204 38.2767C156.9 37.8213 155.003 33.2676 152.954 28.1826L149.311 18.8474L145.061 18.6197C142.708 18.4679 140.811 18.5438 140.811 18.7715Z" fill="#051E2D"/>
<path d="M177.772 18.9992C177.468 19.2269 177.24 26.0575 177.24 34.1783V48.8262H187.866H198.491V45.4109V41.9956H191.281H184.071V39.3392V36.6829H189.763H195.455V33.6471V30.6112H189.763H184.071V27.9549V25.2985H191.281H198.491V21.8832V18.4679H188.397C182.781 18.4679 177.999 18.6956 177.772 18.9992Z" fill="#359FA6"/>
<path d="M213.291 20.8966C212.759 22.2627 210.862 26.8165 209.116 30.9907C205.853 38.808 202.286 47.9913 202.286 48.5985C202.286 48.7503 204.031 48.8262 206.232 48.6744C210.027 48.4467 210.255 48.2949 210.938 45.9421L211.621 43.5135H217.541H223.537L224.599 46.1698C225.662 48.6744 225.889 48.8262 229.532 48.8262H233.403L231.961 45.1832C231.202 43.2099 228.394 36.3793 225.814 30.0041L221.032 18.4679H217.693C214.657 18.4679 214.277 18.6956 213.291 20.8966ZM219.286 31.522C219.97 33.723 220.804 35.9998 221.032 36.4552C221.26 37.2141 220.349 37.4418 217.617 37.4418H213.822L215.416 32.5086C216.327 29.7764 217.237 27.5754 217.465 27.5754C217.769 27.5754 218.528 29.3969 219.286 31.522Z" fill="#359FA6"/>
<path d="M243.649 19.5301C240.31 20.9721 235.832 26.2848 235.225 29.4724C233.783 37.1379 236.894 44.4998 242.814 47.6115C245.774 49.1294 246.761 49.2053 258.676 48.8258L263.078 48.674L262.851 40.6291L262.623 32.5083L256.02 32.2806L249.341 32.0529V35.1646V38.2004H252.756C255.868 38.2004 256.172 38.3522 256.172 40.0219C256.172 43.6649 248.506 43.5131 244.636 39.8701C240.993 36.4548 242.055 28.6376 246.381 26.3607C249.341 24.8428 253.06 25.0705 255.944 26.7402L258.297 28.2581L259.435 26.5884C262.623 21.6552 262.547 21.5793 259.056 19.9855C255.185 18.2399 247.14 18.0122 243.649 19.5301Z" fill="#359FA6"/>
<path d="M269.833 33.6471V48.8262H280.838H291.843V45.4109V41.9956H284.633H277.423V34.8614C277.423 30.9907 277.195 25.678 276.967 23.0976L276.436 18.4679H273.172H269.833V33.6471Z" fill="#359FA6"/>
<path d="M297.914 33.6471V48.8262H308.919H319.924V45.4109V42.0715L312.562 41.8438L305.125 41.6161L304.897 39.1115L304.669 36.6829H310.741H316.888V33.6471V30.6112H310.741H304.669L304.897 28.1067L305.125 25.678L312.562 25.4503L320 25.2226L319.772 22.035L319.545 18.8474L308.767 18.6197L297.914 18.392V33.6471Z" fill="#359FA6"/>
</svg>
